<?xml version="1.0" standalone="no"?>
<svg xmlns:xlink="http://www.w3.org/1999/xlink" id="wave" style="transform:rotate(0deg); transition: 0.3s" viewBox="0 0 1440 230" version="1.1" xmlns="http://www.w3.org/2000/svg"><defs><linearGradient id="sw-gradient-0" x1="0" x2="0" y1="1" y2="0"><stop stop-color="rgba(233.4, 7.589, 241.659, 1)" offset="0%"/><stop stop-color="rgba(255, 11, 205.752, 1)" offset="100%"/></linearGradient></defs><path style="transform:translate(0, 0px); opacity:1" fill="url(#sw-gradient-0)" d="M0,115L40,130.3C80,146,160,176,240,168.7C320,161,400,115,480,88.2C560,61,640,54,720,76.7C800,100,880,153,960,145.7C1040,138,1120,69,1200,46C1280,23,1360,46,1440,80.5C1520,115,1600,161,1680,180.2C1760,199,1840,192,1920,180.2C2000,169,2080,153,2160,130.3C2240,107,2320,77,2400,65.2C2480,54,2560,61,2640,61.3C2720,61,2800,54,2880,42.2C2960,31,3040,15,3120,42.2C3200,69,3280,138,3360,168.7C3440,199,3520,192,3600,161C3680,130,3760,77,3840,61.3C3920,46,4000,69,4080,69C4160,69,4240,46,4320,53.7C4400,61,4480,100,4560,115C4640,130,4720,123,4800,103.5C4880,84,4960,54,5040,53.7C5120,54,5200,84,5280,95.8C5360,107,5440,100,5520,103.5C5600,107,5680,123,5720,130.3L5760,138L5760,230L5720,230C5680,230,5600,230,5520,230C5440,230,5360,230,5280,230C5200,230,5120,230,5040,230C4960,230,4880,230,4800,230C4720,230,4640,230,4560,230C4480,230,4400,230,4320,230C4240,230,4160,230,4080,230C4000,230,3920,230,3840,230C3760,230,3680,230,3600,230C3520,230,3440,230,3360,230C3280,230,3200,230,3120,230C3040,230,2960,230,2880,230C2800,230,2720,230,2640,230C2560,230,2480,230,2400,230C2320,230,2240,230,2160,230C2080,230,2000,230,1920,230C1840,230,1760,230,1680,230C1600,230,1520,230,1440,230C1360,230,1280,230,1200,230C1120,230,1040,230,960,230C880,230,800,230,720,230C640,230,560,230,480,230C400,230,320,230,240,230C160,230,80,230,40,230L0,230Z"/><defs><linearGradient id="sw-gradient-1" x1="0" x2="0" y1="1" y2="0"><stop stop-color="rgba(132.27, 241.659, 11.682, 1)" offset="0%"/><stop stop-color="rgba(255, 11, 11, 1)" offset="100%"/></linearGradient></defs><path style="transform:translate(0, 50px); opacity:0.9" fill="url(#sw-gradient-1)" d="M0,23L40,23C80,23,160,23,240,49.8C320,77,400,130,480,141.8C560,153,640,123,720,107.3C800,92,880,92,960,76.7C1040,61,1120,31,1200,26.8C1280,23,1360,46,1440,57.5C1520,69,1600,69,1680,65.2C1760,61,1840,54,1920,49.8C2000,46,2080,46,2160,57.5C2240,69,2320,92,2400,115C2480,138,2560,161,2640,149.5C2720,138,2800,92,2880,65.2C2960,38,3040,31,3120,49.8C3200,69,3280,115,3360,122.7C3440,130,3520,100,3600,92C3680,84,3760,100,3840,92C3920,84,4000,54,4080,69C4160,84,4240,146,4320,164.8C4400,184,4480,161,4560,149.5C4640,138,4720,138,4800,138C4880,138,4960,138,5040,126.5C5120,115,5200,92,5280,69C5360,46,5440,23,5520,46C5600,69,5680,138,5720,172.5L5760,207L5760,230L5720,230C5680,230,5600,230,5520,230C5440,230,5360,230,5280,230C5200,230,5120,230,5040,230C4960,230,4880,230,4800,230C4720,230,4640,230,4560,230C4480,230,4400,230,4320,230C4240,230,4160,230,4080,230C4000,230,3920,230,3840,230C3760,230,3680,230,3600,230C3520,230,3440,230,3360,230C3280,230,3200,230,3120,230C3040,230,2960,230,2880,230C2800,230,2720,230,2640,230C2560,230,2480,230,2400,230C2320,230,2240,230,2160,230C2080,230,2000,230,1920,230C1840,230,1760,230,1680,230C1600,230,1520,230,1440,230C1360,230,1280,230,1200,230C1120,230,1040,230,960,230C880,230,800,230,720,230C640,230,560,230,480,230C400,230,320,230,240,230C160,230,80,230,40,230L0,230Z"/></svg>